<?xml version="1.0" encoding="utf-8"?>
<!-- Generator: Adobe Illustrator 16.0.0, SVG Export Plug-In . SVG Version: 6.00 Build 0)  -->
<!DOCTYPE svg PUBLIC "-//W3C//DTD SVG 1.1//EN" "http://www.w3.org/Graphics/SVG/1.1/DTD/svg11.dtd">
<svg version="1.1" id="Laag_1" xmlns="http://www.w3.org/2000/svg" xmlns:xlink="http://www.w3.org/1999/xlink" x="0px" y="0px"
	 width="207.5px" height="85.039px" viewBox="0 0 207.5 85.039" enable-background="new 0 0 207.5 85.039" xml:space="preserve">
<g>
	<defs>
		<rect id="SVGID_1_" x="-1.218" y="-5.333" width="210" height="92.083"/>
	</defs>
	<clipPath id="SVGID_2_">
		<use xlink:href="#SVGID_1_"  overflow="visible"/>
	</clipPath>
	<g clip-path="url(#SVGID_2_)">
		<defs>
			<rect id="SVGID_3_" x="-1.218" y="-5.333" width="235.717" height="90.372"/>
		</defs>
		<clipPath id="SVGID_4_">
			<use xlink:href="#SVGID_3_"  overflow="visible"/>
		</clipPath>
		<g clip-path="url(#SVGID_4_)">
			<defs>
				<rect id="SVGID_5_" x="-27.5" y="-0.27" width="1261" height="85.039"/>
			</defs>
			<clipPath id="SVGID_6_">
				<use xlink:href="#SVGID_5_"  overflow="visible"/>
			</clipPath>
			<g clip-path="url(#SVGID_6_)">
				
					<image overflow="visible" opacity="0.75" width="5517" height="196" xlink:href="1FB5D9792F9E36C0.png"  transform="matrix(0.24 0 0 0.24 -45.5 21.5)">
				</image>
				<g>
					<g>
						<path fill="#A6D5BE" d="M1260.5,48.5c-7.095,0-10.689-1.094-14.166-2.151c-3.125-0.951-6.076-1.849-12.129-1.849
							c-6.054,0-9.005,0.898-12.13,1.849c-3.477,1.058-7.072,2.151-14.166,2.151s-10.688-1.094-14.164-2.151
							c-3.124-0.951-6.075-1.849-12.128-1.849c-6.052,0-9.002,0.898-12.126,1.848c-3.476,1.058-7.07,2.152-14.163,2.152
							c-7.094,0-10.688-1.094-14.164-2.152c-3.124-0.95-6.075-1.848-12.127-1.848s-9.002,0.898-12.126,1.848
							c-3.476,1.058-7.07,2.152-14.164,2.152c-7.093,0-10.687-1.094-14.162-2.152c-3.124-0.95-6.074-1.848-12.125-1.848
							s-9.001,0.898-12.125,1.849c-3.476,1.058-7.069,2.151-14.161,2.151s-10.686-1.094-14.161-2.152
							c-3.122-0.95-6.072-1.848-12.122-1.848c-6.052,0-9.002,0.898-12.126,1.848c-3.476,1.058-7.07,2.152-14.163,2.152
							s-10.687-1.094-14.162-2.152c-3.124-0.95-6.074-1.848-12.125-1.848s-9.001,0.898-12.125,1.848
							c-3.476,1.058-7.069,2.152-14.162,2.152s-10.687-1.094-14.162-2.152c-3.124-0.95-6.074-1.848-12.125-1.848
							s-9.001,0.898-12.125,1.848c-3.476,1.058-7.069,2.152-14.162,2.152c-7.092,0-10.686-1.094-14.162-2.151
							c-3.123-0.951-6.073-1.849-12.124-1.849c-6.052,0-9.002,0.898-12.126,1.848c-3.476,1.058-7.07,2.152-14.163,2.152
							s-10.687-1.094-14.162-2.152c-3.124-0.95-6.073-1.848-12.124-1.848s-9,0.898-12.123,1.848
							c-3.477,1.058-7.07,2.152-14.162,2.152c-7.093,0-10.687-1.094-14.162-2.152c-3.122-0.95-6.072-1.848-12.122-1.848
							s-8.999,0.898-12.122,1.848c-3.476,1.058-7.07,2.152-14.162,2.152s-10.687-1.094-14.161-2.152
							c-3.124-0.95-6.073-1.848-12.124-1.848s-9.001,0.898-12.124,1.848c-3.477,1.058-7.07,2.152-14.163,2.152
							c-7.092,0-10.687-1.094-14.162-2.152c-3.123-0.95-6.072-1.848-12.122-1.848s-9,0.898-12.122,1.848
							c-3.476,1.058-7.069,2.152-14.16,2.152c-7.092,0-10.686-1.094-14.161-2.152c-3.122-0.95-6.072-1.848-12.122-1.848
							c-6.051,0-9,0.898-12.124,1.848c-3.475,1.058-7.068,2.152-14.16,2.152c-7.091,0-10.685-1.094-14.16-2.152
							c-3.122-0.95-6.071-1.848-12.121-1.848c-6.051,0-9.001,0.898-12.125,1.849c-3.476,1.058-7.069,2.151-14.161,2.151
							c-7.091,0-10.684-1.094-14.159-2.152c-3.122-0.95-6.071-1.848-12.12-1.848c-6.051,0-9,0.898-12.124,1.848
							c-3.476,1.058-7.069,2.152-14.162,2.152c-7.091,0-10.684-1.094-14.159-2.152c-3.122-0.95-6.071-1.848-12.12-1.848
							c-6.051,0-9,0.898-12.123,1.848c-3.476,1.058-7.07,2.152-14.162,2.152s-10.686-1.094-14.16-2.152
							c-3.124-0.95-6.073-1.848-12.124-1.848s-9,0.898-12.123,1.848c-3.476,1.058-7.07,2.152-14.162,2.152
							s-10.687-1.094-14.162-2.152c-3.123-0.95-6.072-1.848-12.123-1.848s-9,0.898-12.123,1.848
							c-3.477,1.058-7.07,2.152-14.163,2.152c-7.092,0-10.686-1.094-14.161-2.152c-3.122-0.95-6.072-1.848-12.123-1.848
							s-9.001,0.898-12.123,1.848c-3.476,1.058-7.069,2.152-14.161,2.152s-10.686-1.094-14.162-2.152
							c-3.123-0.95-6.072-1.848-12.123-1.848c-6.05,0-8.999,0.898-12.122,1.848c-3.476,1.058-7.07,2.152-14.162,2.152
							s-10.686-1.094-14.161-2.152c-3.122-0.95-6.072-1.848-12.122-1.848c-6.051,0-9,0.898-12.123,1.848
							c-3.477,1.058-7.07,2.152-14.163,2.152c-7.092,0-10.686-1.094-14.161-2.152c-3.122-0.95-6.072-1.848-12.122-1.848
							c-6.051,0-9,0.898-12.123,1.848c-3.476,1.058-7.07,2.152-14.162,2.152s-10.686-1.094-14.161-2.152
							c-3.122-0.95-6.072-1.848-12.122-1.848c-6.051,0-9,0.898-12.124,1.848c-3.475,1.058-7.069,2.152-14.161,2.152
							s-10.686-1.094-14.161-2.152c-3.122-0.95-6.072-1.848-12.122-1.848c-6.051,0-9,0.898-12.124,1.848
							C9.469,47.406,5.874,48.5-1.218,48.5s-10.686-1.094-14.161-2.152C-18.501,45.398-21.45,44.5-27.5,44.5v-7
							c7.091,0,10.685,1.094,14.16,2.152c3.122,0.95,6.072,1.848,12.122,1.848c6.051,0,9-0.898,12.123-1.848
							c3.476-1.058,7.07-2.152,14.162-2.152s10.686,1.094,14.161,2.152c3.122,0.95,6.072,1.848,12.122,1.848
							c6.051,0,9-0.898,12.123-1.848c3.476-1.058,7.07-2.152,14.162-2.152s10.686,1.094,14.161,2.152
							c3.122,0.95,6.072,1.848,12.122,1.848c6.051,0,9-0.898,12.124-1.848c3.475-1.058,7.069-2.152,14.161-2.152
							s10.686,1.094,14.161,2.152c3.122,0.95,6.072,1.848,12.122,1.848c6.051,0,9.001-0.898,12.125-1.849
							c3.476-1.058,7.069-2.151,14.161-2.151s10.686,1.094,14.161,2.152c3.122,0.95,6.072,1.848,12.122,1.848
							c6.051,0,9-0.898,12.123-1.848c3.476-1.058,7.069-2.152,14.161-2.152s10.686,1.094,14.162,2.152
							c3.123,0.95,6.072,1.848,12.123,1.848c6.05,0,9-0.898,12.122-1.848c3.476-1.058,7.069-2.152,14.162-2.152
							c7.092,0,10.687,1.094,14.162,2.152c3.123,0.95,6.072,1.848,12.122,1.848c6.051,0,9.001-0.898,12.124-1.849
							c3.477-1.058,7.07-2.151,14.162-2.151s10.686,1.094,14.162,2.152c3.123,0.95,6.072,1.848,12.123,1.848s9-0.898,12.124-1.848
							c3.475-1.058,7.069-2.152,14.161-2.152s10.687,1.094,14.162,2.152c3.123,0.95,6.072,1.848,12.122,1.848
							c6.051,0,9-0.898,12.124-1.848c3.475-1.058,7.069-2.152,14.161-2.152c7.091,0,10.684,1.094,14.159,2.152
							c3.122,0.95,6.071,1.848,12.12,1.848c6.051,0,9.001-0.898,12.125-1.849c3.476-1.058,7.069-2.151,14.161-2.151
							c7.091,0,10.684,1.094,14.159,2.152c3.122,0.95,6.071,1.848,12.12,1.848c6.051,0,9-0.898,12.123-1.848
							c3.477-1.058,7.07-2.152,14.163-2.152c7.091,0,10.685,1.094,14.16,2.152c3.122,0.95,6.071,1.848,12.121,1.848
							s9-0.898,12.122-1.848c3.476-1.058,7.07-2.152,14.162-2.152s10.686,1.094,14.161,2.152c3.122,0.95,6.072,1.848,12.122,1.848
							s8.999-0.898,12.121-1.848c3.476-1.058,7.069-2.152,14.161-2.152s10.686,1.094,14.161,2.152
							c3.122,0.95,6.072,1.848,12.123,1.848s9.001-0.898,12.124-1.848c3.477-1.058,7.07-2.152,14.163-2.152
							c7.092,0,10.687,1.094,14.162,2.152c3.123,0.95,6.072,1.848,12.123,1.848s9-0.898,12.124-1.848
							c3.475-1.058,7.068-2.152,14.16-2.152s10.686,1.094,14.161,2.152c3.123,0.95,6.072,1.848,12.123,1.848s9-0.898,12.123-1.848
							c3.476-1.058,7.07-2.152,14.162-2.152s10.686,1.094,14.161,2.151c3.124,0.951,6.074,1.849,12.125,1.849
							c6.052,0,9.002-0.898,12.126-1.848c3.476-1.058,7.07-2.152,14.163-2.152s10.687,1.094,14.163,2.152
							c3.123,0.95,6.073,1.848,12.123,1.848c6.051,0,9.001-0.898,12.125-1.848c3.476-1.058,7.069-2.152,14.162-2.152
							s10.687,1.094,14.163,2.152c3.123,0.95,6.073,1.848,12.124,1.848s9.001-0.898,12.124-1.848
							c3.477-1.058,7.07-2.152,14.163-2.152s10.687,1.094,14.162,2.152c3.124,0.95,6.074,1.848,12.125,1.848
							c6.052,0,9.002-0.898,12.126-1.848c3.476-1.058,7.07-2.152,14.163-2.152c7.092,0,10.686,1.094,14.161,2.152
							c3.122,0.95,6.072,1.848,12.122,1.848c6.051,0,9-0.898,12.123-1.848c3.477-1.058,7.07-2.152,14.163-2.152
							s10.687,1.094,14.162,2.152c3.124,0.95,6.074,1.848,12.125,1.848c6.052,0,9.003-0.898,12.127-1.849
							c3.476-1.058,7.07-2.151,14.163-2.151c7.094,0,10.688,1.094,14.164,2.152c3.124,0.95,6.075,1.848,12.127,1.848
							s9.002-0.898,12.126-1.848c3.476-1.058,7.07-2.152,14.163-2.152c7.094,0,10.689,1.094,14.165,2.152
							c3.124,0.95,6.075,1.848,12.127,1.848c6.053,0,9.004-0.898,12.129-1.848c3.477-1.058,7.072-2.152,14.167-2.152
							s10.689,1.094,14.166,2.151c3.125,0.951,6.076,1.849,12.129,1.849V48.5z"/>
					</g>
				</g>
			</g>
		</g>
	</g>
</g>
</svg>
