<?xml version="1.0" encoding="utf-8"?>
<!-- Generator: Adobe Illustrator 16.0.0, SVG Export Plug-In . SVG Version: 6.00 Build 0)  -->
<!DOCTYPE svg PUBLIC "-//W3C//DTD SVG 1.1//EN" "http://www.w3.org/Graphics/SVG/1.1/DTD/svg11.dtd">
<svg version="1.1" id="Laag_1" xmlns="http://www.w3.org/2000/svg" xmlns:xlink="http://www.w3.org/1999/xlink" x="0px" y="0px"
	 width="226.77px" height="70.5px" viewBox="0 0 226.77 70.5" enable-background="new 0 0 226.77 70.5" xml:space="preserve">
<g>
	<path fill="#A5D4BD" d="M17.405,7.505c2.809-1.561,4.637-2.341,5.484-2.341c0.936,0,1.85,0.268,2.743,0.803
		c0.891,0.536,1.337,1.07,1.337,1.605c0,0.669-0.39,1.148-1.169,1.438c-0.782,0.29-1.438,0.212-1.974-0.234
		c-0.624-0.49-1.75-0.323-3.377,0.502c-1.628,0.826-3.267,2.063-4.917,3.712c-1.649,1.695-2.933,3.457-3.846,5.284
		c-0.915,1.83-1.415,3.568-1.505,5.218c-0.089,1.65,0.033,3.267,0.368,4.85c0.335,1.583,0.87,2.999,1.606,4.247
		c0.736,1.249,1.504,2.364,2.308,3.344c0.802,0.981,1.582,1.729,2.341,2.24c0.758,0.514,1.405,0.771,1.939,0.771
		c1.516,0,3.501-0.469,5.954-1.405c2.452-0.935,4.281-1.917,5.485-2.943c2.008-1.783,2.988-2.163,2.943-1.137
		c-0.045,0.401-0.29,1.026-0.735,1.873c-1.383,2.72-4.438,4.773-9.164,6.154c-2.23,0.625-3.936,0.858-5.117,0.702
		c-1.182-0.155-3.178-0.948-5.987-2.374c-1.65-0.804-2.754-1.506-3.311-2.107c-0.558-0.602-1.082-1.594-1.572-2.977
		c-0.714-2.096-1.069-4.759-1.069-7.993c0-3.233,0.355-6.03,1.069-8.395c0.624-2.185,1.716-4.114,3.278-5.786
		C12.076,10.882,14.372,9.2,17.405,7.505z"/>
</g>
<g>
	<path fill="#A5D4BD" d="M40.347,18.742c1.07-0.49,2.653-0.669,4.75-0.535c2.096,0.133,4.214,0.535,6.354,1.204
		c2.141,0.669,3.345,1.36,3.611,2.073c0.357,0.848,0.201,1.271-0.468,1.271c-0.535,0-1.494-0.245-2.876-0.735
		c-2.007-0.669-4.158-1.003-6.455-1.003c-2.296,0-3.735,0.334-4.313,1.003c-0.536,0.714-1.271,4.593-2.208,11.638
		c-0.981,7.715-1.961,11.549-2.942,11.504c-0.268,0-0.536-0.222-0.803-0.668c-0.356-0.536-0.535-2.742-0.535-6.621
		c0-3.881,0.156-7.671,0.468-11.373c0.312-3.701,0.78-5.552,1.404-5.552s0.981,0.87,1.071,2.609c0,0.401,0.021,0.602,0.067,0.602
		c0.134,0.044,0.445-0.624,0.935-2.007C39.076,20.28,39.723,19.143,40.347,18.742z"/>
</g>
<g>
	<path fill="#A5D4BD" d="M65.163,18.006c1.56-0.712,2.854-1.014,3.88-0.903c1.024,0.112,2.116,0.659,3.277,1.639
		c4.014,3.301,5.039,6.288,3.077,8.963c-0.936,1.294-3.066,2.03-6.388,2.208c-3.322,0.179-5.831-0.268-7.525-1.338
		c-0.759-0.49-1.237-0.669-1.438-0.536c-0.201,0.134-0.391,0.759-0.568,1.874c-0.759,4.058,0.355,7.37,3.345,9.933
		c2.987,2.564,6.957,3.602,11.906,3.109c2.095-0.223,3.166-0.176,3.21,0.135c0.044,0.312-0.937,0.803-2.943,1.473
		c-2.72,0.935-5.652,0.914-8.795-0.068c-3.145-0.98-5.452-2.586-6.923-4.816c-1.295-2.006-2.107-3.812-2.442-5.417
		s-0.28-3.522,0.167-5.752c0.49-2.318,1.46-4.415,2.91-6.288C61.361,20.347,63.111,18.942,65.163,18.006z M72.387,21.552
		c-1.516-1.695-3.378-2.241-5.585-1.639c-2.208,0.602-3.937,2.13-5.185,4.583c-0.535,1.026-0.691,1.649-0.468,1.872
		c0.267,0.268,2.14,0.536,5.619,0.803c3.522,0.312,5.796-0.034,6.822-1.037C74.616,25.13,74.215,23.603,72.387,21.552z"/>
</g>
<g>
	<path fill="#A5D4BD" d="M86.634,20.28c1.783-1.917,3.232-2.876,4.348-2.876c1.248,0,2.575,0.413,3.98,1.237
		c1.404,0.826,2.575,1.884,3.512,3.177c0.713,1.026,1.17,2.085,1.372,3.178c0.2,1.093,0.301,3.333,0.301,6.722
		c0,2.899,0.101,5.051,0.302,6.455c0.2,1.404,0.522,2.553,0.969,3.445c1.204,2.186,1.56,3.59,1.07,4.213
		c-0.133,0.178-0.357,0.224-0.669,0.134c-0.713-0.224-1.471-1.126-2.274-2.709c-0.802-1.582-1.338-3.153-1.605-4.715
		c-0.267-1.874-0.468-2.876-0.602-3.01c-0.046-0.044-0.158,0.023-0.335,0.201c-0.178,0.179-0.39,0.447-0.636,0.803
		c-0.245,0.356-0.501,0.758-0.769,1.203c-1.116,1.785-2.621,3.49-4.516,5.117c-1.896,1.629-3.511,2.599-4.849,2.91
		c-2.676,0.58-4.616-0.269-5.82-2.542c-1.203-2.275-1.471-5.575-0.802-9.9c0.445-2.72,1.125-4.95,2.04-6.689
		C82.563,24.896,84.226,22.778,86.634,20.28z M95.262,21.819c-1.16-1.114-2.274-1.616-3.345-1.505
		c-1.07,0.112-2.274,0.859-3.612,2.241c-2.274,2.363-3.812,4.38-4.616,6.053c-0.802,1.672-1.337,3.936-1.605,6.79
		c-0.223,2.454-0.268,4.07-0.134,4.848c0.134,0.782,0.536,1.506,1.204,2.176c1.025,1.025,2.083,1.315,3.177,0.869
		c1.092-0.445,2.709-1.807,4.85-4.08c2.184-2.319,3.689-4.359,4.515-6.121c0.824-1.761,1.237-3.823,1.237-6.188
		c0-1.382-0.111-2.43-0.334-3.144C96.376,23.046,95.931,22.399,95.262,21.819z"/>
</g>
<g>
	<path fill="#EDEDED" d="M105.362,8.574c0.312-0.445,0.724-0.411,1.238,0.101c0.512,0.513,0.523,1.55,0.033,3.11
		c-0.49,1.472-0.612,6.723-0.367,15.752c0.245,9.029,0.167,14.482-0.234,16.355c-0.401,1.516-0.713,1.672-0.936,0.468
		c-0.178-1.114-0.38-3.9-0.603-8.361C103.645,20.08,103.934,10.939,105.362,8.574z"/>
</g>
<g>
	<path fill="#EDEDED" d="M109.107,7.906c0.803-0.535,1.527-0.635,2.174-0.301c0.646,0.334,1.037,0.993,1.171,1.973
		c0.088,0.893,0.043,1.461-0.134,1.706c-0.179,0.246-0.67,0.368-1.472,0.368c-1.026,0-1.773-0.49-2.242-1.471
		C108.137,9.2,108.304,8.44,109.107,7.906z M109.709,31.986c0-4.771,0.067-7.915,0.201-9.431c0.134-1.516,0.401-2.275,0.803-2.275
		c0.445,0,0.79,0.146,1.035,0.435c0.245,0.291,0.47,0.97,0.67,2.04c0.201,1.07,0.356,2.441,0.469,4.114
		c0.11,1.672,0.234,4.092,0.367,7.258c0.09,2.943,0.146,5.184,0.167,6.723c0.023,1.539-0.033,2.799-0.167,3.779
		c-0.133,0.981-0.334,1.596-0.601,1.84c-0.268,0.245-0.67,0.367-1.204,0.367c-0.714,0-1.182-0.946-1.405-2.842
		C109.82,42.097,109.709,38.096,109.709,31.986z"/>
</g>
<g>
	<path fill="#EDEDED" d="M124.959,19.478c2.096-0.846,3.455-1.293,4.08-1.338c0.536-0.043,1.415,0.513,2.642,1.672
		c1.227,1.16,1.84,2.007,1.84,2.542c0,0.714-0.401,0.914-1.203,0.602c-0.536-0.177-1.003-0.557-1.404-1.137
		c-0.401-0.535-0.794-0.813-1.171-0.836c-0.381-0.021-1.194,0.167-2.441,0.569c-3.256,1.16-5.631,2.642-7.125,4.448
		c-1.494,1.805-2.463,4.404-2.909,7.792c-0.269,2.052-0.157,3.969,0.335,5.752c0.489,1.783,1.271,3.188,2.341,4.213
		c0.937,0.849,2.82,1.328,5.652,1.438c2.832,0.112,5.386-0.167,7.659-0.836c1.782-0.578,2.675-0.802,2.675-0.669
		c0.044,0.091-0.245,0.425-0.869,1.004c-1.562,1.516-4.08,2.441-7.558,2.775c-3.479,0.334-6.11-0.077-7.893-1.237
		c-1.785-1.159-3.034-2.564-3.746-4.214c-0.715-1.648-1.07-3.924-1.07-6.823C114.792,27.394,118.18,22.153,124.959,19.478z"/>
</g>
<g>
	<path fill="#EDEDED" d="M138.003,7.906c0.803-0.535,1.527-0.635,2.175-0.301c0.645,0.334,1.035,0.993,1.169,1.973
		c0.09,0.893,0.044,1.461-0.134,1.706c-0.178,0.246-0.669,0.368-1.471,0.368c-1.027,0-1.773-0.49-2.241-1.471
		C137.033,9.2,137.199,8.44,138.003,7.906z M138.605,31.986c0-4.771,0.066-7.915,0.199-9.431c0.135-1.516,0.401-2.275,0.803-2.275
		c0.444,0,0.791,0.146,1.036,0.435c0.245,0.291,0.47,0.97,0.669,2.04c0.201,1.07,0.356,2.441,0.47,4.114
		c0.109,1.672,0.233,4.092,0.367,7.258c0.089,2.943,0.146,5.184,0.167,6.723c0.022,1.539-0.032,2.799-0.167,3.779
		c-0.134,0.981-0.334,1.596-0.603,1.84c-0.268,0.245-0.669,0.367-1.203,0.367c-0.714,0-1.183-0.946-1.404-2.842
		C138.715,42.097,138.605,38.096,138.605,31.986z"/>
</g>
<g>
	<path fill="#EDEDED" d="M175.192,43.291c0.268,0,0.88-0.336,1.84-1.004c0.958-0.668,2.095-1.648,3.411-2.942
		c1.314-1.293,2.586-2.731,3.812-4.314c1.226-1.582,2.262-3.445,3.11-5.585c0.847-2.141,1.271-4.258,1.271-6.354
		c0-1.204,0.077-1.974,0.233-2.308c0.155-0.334,0.479-0.457,0.97-0.368c0.714,0.09,1.148,1.06,1.304,2.91
		c0.156,1.851,0.178,3.936,0.067,6.254c-0.11,2.319,0.056,4.761,0.503,7.324c0.444,2.566,1.247,4.494,2.407,5.787
		c0.445,0.49,0.67,0.825,0.67,1.002c0,0.18-0.246,0.359-0.736,0.536c-0.626,0.267-1.372-0.101-2.241-1.103
		c-0.87-1.004-1.605-2.33-2.209-3.98c-0.601-1.649-0.925-3.233-0.968-4.75c0-0.758-0.067-1.159-0.202-1.204
		c-0.178,0-0.58,0.424-1.203,1.271c-0.312,0.401-0.78,1.093-1.404,2.074c-2.988,4.414-6.222,7.402-9.699,8.962
		c-2.319,1.071-4.125,0.112-5.419-2.875c-1.515-3.301-1.85-7.447-1.003-12.441c0.402-2.452,1.092-4.727,2.075-6.822
		c0.312-0.669,0.679-1.238,1.103-1.706c0.423-0.468,0.771-0.703,1.037-0.703c0.623,0,0.936,0.157,0.936,0.468
		c0,0.402-0.446,1.963-1.337,4.683c-0.893,2.632-1.429,5.296-1.605,7.994c-0.18,2.699,0.033,4.905,0.635,6.622
		C173.151,42.432,174.032,43.291,175.192,43.291z"/>
</g>
<g>
	<path fill="#EDEDED" d="M206.495,19.344c1.695-0.402,3.288-0.189,4.783,0.636c1.493,0.825,2.106,1.862,1.84,3.11
		c-0.134,0.803-0.47,1.216-1.003,1.238c-0.536,0.023-0.915-0.369-1.138-1.171c-0.224-0.936-1.036-1.438-2.442-1.505
		c-1.404-0.067-3.021,0.279-4.849,1.037c-3.345,1.427-3.97,2.966-1.873,4.615c1.114,0.848,3.01,1.829,5.686,2.943
		c3.121,1.249,5.352,2.498,6.689,3.746c1.338,1.249,2.007,2.675,2.007,4.28c0,1.873-1.283,3.645-3.847,5.317
		c-2.565,1.673-5.251,2.509-8.061,2.509c-1.516,0-3.188-0.379-5.017-1.137s-2.854-1.516-3.076-2.274
		c-0.135-0.356,0-0.489,0.402-0.401c0.267,0.09,0.712,0.289,1.337,0.602c1.247,0.67,2.809,1.004,4.682,1.004
		s3.646-0.245,5.318-0.737c1.673-0.489,3.099-1.192,4.28-2.106s1.772-1.885,1.772-2.91c0-0.803-0.736-1.816-2.207-3.042
		c-1.472-1.227-3.056-2.107-4.749-2.643c-3.612-1.159-6.178-2.475-7.693-3.947c-1.515-1.472-2.028-3.166-1.538-5.083
		c0.178-0.757,1.037-1.494,2.575-2.207C201.914,20.504,203.954,19.879,206.495,19.344z"/>
</g>
<g>
	<path fill="#A5D4BD" d="M171.631,28.452c-0.529-0.193-1.066-0.364-1.602-0.537c-0.36-0.116-0.398-0.289-0.188-0.603
		c0.786-1.172,1.494-2.388,1.983-3.728c0.979-2.671,1.472-5.353,0.507-8.142c-0.394-1.137-1.093-2.057-2.164-2.531
		c-1.801-0.801-3.606-0.916-5.464,0.071c-2.002,1.061-3.576,2.558-4.912,4.324c-1.282,1.696-2.329,3.542-3.097,5.536
		c-0.581,1.516-1.224,3.011-1.372,4.651c-0.024,0.257-0.036,0.513-0.063,0.768c-0.019,0.19-0.089,0.303-0.195,0.357
		c-0.026,0.341-0.068,0.68-0.158,1.016c-0.145,0.525-0.745,0.909-1.286,0.729c-0.466-0.157-0.83-0.428-1.198-0.7
		c-0.188,0.174-0.325,0.174-0.562,0.035c-1.175-0.688-2.351-1.376-3.54-2.039c-1.97-1.095-4.07-1.799-6.289-2.21
		c-0.975-0.181-1.917-0.112-2.869-0.005c-1.711,0.191-3.311,0.744-4.82,1.584c-1.734,0.966-3.195,2.191-4.078,4.016
		c-0.933,1.929-0.742,3.583,1.042,5.311c0.841,0.814,1.895,1.245,2.927,1.726c1.642,0.764,3.354,1.306,5.139,1.6
		c0.821,0.136,1.655,0.196,2.484,0.284c0.498,0.053,0.553,0.162,0.317,0.598c-0.151,0.28-0.254,0.588-0.398,0.874
		c-0.479,0.955,0.003,2.29,0.917,2.819c0.52,0.301,1.09,0.586,1.672,0.689c0.895,0.16,1.819,0.211,2.729,0.213
		c2.078,0.006,4.082-0.418,6.008-1.205c1.393-0.57,2.748-1.239,3.725-2.413c0.631-0.757,1.113-1.644,1.618-2.495
		c0.195-0.33,0.356-0.422,0.661-0.258c0.086-0.295,0.184-0.586,0.317-0.869c0.236-0.506,0.902-0.627,1.378-0.4
		c-0.018-0.301,0.086-0.293,0.535-0.145c2.176,0.709,4.355,1.303,6.697,1.063c1.592-0.161,3.042-0.612,4.358-1.517
		c1.219-0.837,1.984-2.032,2.224-3.43C174.983,31.333,173.806,29.247,171.631,28.452z M172.644,33.225
		c-0.275,0.746-0.58,1.523-1.253,2.023c-0.469,0.348-0.98,0.66-1.511,0.903c-1.267,0.577-2.636,0.643-4.503,0.759
		c-1.177-0.19-2.836-0.454-4.495-0.729c-0.225-0.037-0.395-0.139-0.534-0.286c-0.163,0.039-0.353,0.029-0.564-0.045
		c-0.405-0.142-0.821-0.225-1.237-0.303c0.028,1.25-0.537,2.35-0.82,3.543c-0.146,0.611-0.663,0.816-1.142,0.727
		c-1.185,1.23-2.562,2.229-4.151,2.92c-1.559,0.68-3.219,1.101-5.163,1.308c-0.624-0.126-1.484-0.249-2.312-0.481
		c-0.896-0.252-1.248-0.914-1.052-1.81c0.072-0.328,0.169-0.653,0.297-0.966c0.229-0.555,0.635-0.889,1.246-1.016
		c0.562-0.115,1.131-0.266,1.652-0.497c0.739-0.33,1.084-1,0.887-1.521c-0.187-0.489-1.052-0.898-1.703-0.686
		c-0.634,0.206-1.216,0.562-1.823,0.845c-0.172,0.079-0.353,0.196-0.529,0.198c-1.604,0.021-3.225,0.143-4.794-0.28
		c-1.763-0.479-3.572-0.884-5.023-2.105c-0.859-0.722-1.778-1.44-2.116-2.562c-0.141-0.467-0.096-1.06,0.053-1.535
		c0.364-1.162,1.175-2.004,2.193-2.657c1.582-1.012,3.341-1.421,5.179-1.659c2.423-0.313,4.742,0.092,7.077,0.686
		c1.879,0.477,3.5,1.425,5.123,2.397c0.143,0.085,0.292,0.208,0.41,0.345c1.012,0.106,1.953,0.441,2.927,0.741
		c0.075,0.024,0.145,0.054,0.207,0.087c0.041-0.033,0.081-0.066,0.118-0.098c0.075-0.833,0.295-1.629,0.602-2.402
		c-0.096-0.166-0.126-0.339-0.081-0.567c0.448-2.273,1.222-4.405,2.4-6.416c1.487-2.537,3.421-4.678,5.57-6.641
		c1.021-0.932,2.269-1.491,3.626-1.685c1.255-0.178,2.591,0.44,3.187,1.92c1.021,2.536,0.984,5.082-0.293,7.539
		c-0.872,1.679-1.995,3.183-3.496,4.363c-0.261,0.205-0.621,0.327-0.956,0.397c-1.465,0.302-2.724,0.936-3.65,2.144
		c-0.523,0.685-0.495,1.502,0.163,1.782c0.465,0.197,1.102,0.268,1.574,0.116c1.181-0.38,2.266-1.014,3.11-1.943
		c0.603-0.66,1.249-0.799,2.075-0.579c1.277,0.339,2.391,0.917,3.244,1.95C172.803,31.988,172.861,32.626,172.644,33.225z"/>
	<path fill="#A5D4BD" d="M147.126,45.495h-0.037c-1.067-0.003-1.979-0.075-2.786-0.22c-0.663-0.118-1.3-0.453-1.78-0.729
		c-1.088-0.628-1.588-2.181-1.049-3.258c0.063-0.126,0.118-0.255,0.173-0.384c0.072-0.17,0.144-0.338,0.23-0.5
		c0.021-0.036,0.035-0.067,0.047-0.093c-0.028-0.005-0.063-0.009-0.105-0.015l-0.64-0.062c-0.611-0.059-1.243-0.12-1.863-0.223
		c-1.778-0.293-3.536-0.841-5.224-1.627l-0.342-0.156c-0.929-0.426-1.889-0.869-2.677-1.632c-1.796-1.739-2.148-3.549-1.111-5.697
		c0.819-1.695,2.16-3.018,4.216-4.163c1.598-0.89,3.262-1.436,4.946-1.624c0.881-0.099,2.037-0.164,2.968,0.009
		c2.372,0.438,4.461,1.173,6.39,2.246c1.191,0.664,2.37,1.353,3.547,2.042c0.07,0.041,0.103,0.051,0.113,0.054
		c0-0.004,0.021-0.015,0.055-0.046l0.203-0.186l0.221,0.163c0.368,0.271,0.697,0.514,1.106,0.651c0.33,0.111,0.762-0.151,0.857-0.5
		c0.071-0.268,0.117-0.562,0.146-0.953l0.015-0.188l0.165-0.083c-0.003-0.001,0.011-0.027,0.017-0.093
		c0.016-0.14,0.024-0.277,0.035-0.416c0.008-0.117,0.018-0.234,0.027-0.351c0.138-1.504,0.677-2.894,1.2-4.238l0.194-0.501
		c0.759-1.977,1.816-3.867,3.142-5.618c1.492-1.972,3.136-3.417,5.021-4.417c1.819-0.965,3.7-0.996,5.758-0.081
		c1.081,0.479,1.893,1.421,2.344,2.727c1.1,3.18,0.307,6.142-0.509,8.367c-0.438,1.197-1.062,2.369-2.021,3.799
		c-0.021,0.031-0.035,0.057-0.047,0.077c0.016,0.006,0.036,0.014,0.06,0.021l0.075,0.024c0.516,0.166,1.03,0.331,1.537,0.516
		c2.288,0.836,3.602,3.061,3.198,5.408c-0.259,1.502-1.075,2.765-2.364,3.649c-1.284,0.881-2.76,1.396-4.514,1.574
		c-0.362,0.037-0.734,0.057-1.105,0.057l0,0c-2.076,0-4.045-0.586-5.729-1.135c-0.019-0.006-0.051-0.018-0.085-0.026l0.019,0.339
		l-0.509-0.184c-0.105-0.051-0.227-0.077-0.352-0.077c-0.102,0-0.441,0.022-0.58,0.317c-0.108,0.234-0.204,0.494-0.299,0.82
		l-0.113,0.398l-0.365-0.196c-0.06-0.031-0.09-0.038-0.098-0.038c0.004,0.003-0.038,0.037-0.119,0.172l-0.246,0.42
		c-0.421,0.721-0.855,1.466-1.401,2.119c-1.032,1.239-2.462,1.939-3.855,2.508C151.229,45.08,149.178,45.495,147.126,45.495z
		 M140.737,25.673c-0.538,0-1.081,0.053-1.54,0.105c-1.597,0.178-3.174,0.698-4.693,1.544c-1.931,1.074-3.183,2.304-3.94,3.869
		c-0.919,1.902-0.627,3.375,0.975,4.925c0.706,0.686,1.573,1.083,2.491,1.504l0.345,0.159c1.633,0.76,3.332,1.289,5.05,1.573
		c0.6,0.099,1.22,0.158,1.82,0.216l0.645,0.064c0.267,0.027,0.562,0.078,0.694,0.332c0.134,0.252,0.009,0.523-0.116,0.757
		c-0.077,0.144-0.141,0.294-0.203,0.443c-0.061,0.142-0.123,0.286-0.191,0.423c-0.385,0.768-0.003,1.924,0.786,2.377
		c0.433,0.252,1.002,0.553,1.563,0.651c0.769,0.139,1.643,0.206,2.67,0.208l0.036,0.336v-0.336c1.963,0,3.931-0.396,5.845-1.181
		c1.313-0.538,2.657-1.189,3.596-2.317c0.347-0.416,0.652-0.883,0.94-1.357c-0.223,0.144-0.494,0.217-0.801,0.198
		c-1.226,1.245-2.619,2.212-4.143,2.874c-1.603,0.699-3.274,1.122-5.261,1.334l-0.052,0.005l-0.05-0.011
		c-0.181-0.036-0.381-0.072-0.593-0.11c-0.536-0.097-1.142-0.206-1.743-0.376c-1.045-0.293-1.525-1.117-1.288-2.203
		c0.078-0.361,0.185-0.706,0.314-1.02c0.271-0.66,0.771-1.068,1.487-1.217c0.656-0.137,1.16-0.287,1.584-0.475
		c0.603-0.27,0.835-0.771,0.709-1.098c-0.092-0.244-0.554-0.527-1.009-0.527c-0.101,0-0.193,0.014-0.276,0.041
		c-0.401,0.131-0.781,0.324-1.184,0.532c-0.2,0.101-0.4,0.204-0.603,0.299l-0.114,0.056c-0.159,0.08-0.34,0.172-0.553,0.174
		c-0.252,0.004-0.505,0.008-0.756,0.014c-0.382,0.008-0.766,0.018-1.147,0.018c-0.88,0-1.923-0.038-2.982-0.323l-0.449-0.12
		c-1.631-0.437-3.318-0.887-4.702-2.051l-0.148-0.124c-0.849-0.709-1.727-1.444-2.073-2.597c-0.149-0.498-0.13-1.146,0.054-1.731
		c0.355-1.132,1.118-2.061,2.333-2.838c1.763-1.128,3.676-1.498,5.314-1.709c0.573-0.074,1.168-0.111,1.766-0.111
		c2.018,0,3.965,0.43,5.437,0.805c1.994,0.505,3.703,1.53,5.212,2.435c0.144,0.085,0.281,0.194,0.399,0.313
		c0.844,0.104,1.646,0.356,2.422,0.601l0.371,0.116c0.087-0.664,0.264-1.34,0.537-2.057c-0.045-0.118-0.07-0.239-0.073-0.369
		c-0.02,0.028-0.041,0.055-0.063,0.078c-0.024,0.269-0.066,0.595-0.156,0.929c-0.195,0.712-1.028,1.189-1.716,0.958
		c-0.432-0.144-0.776-0.373-1.1-0.607c-0.213,0.099-0.542,0.021-0.724-0.086c-1.173-0.687-2.346-1.374-3.534-2.034
		c-1.862-1.037-3.886-1.748-6.186-2.173C141.584,25.708,141.181,25.673,140.737,25.673z M146.665,36.675
		c0.713,0,1.431,0.422,1.634,0.959c0.272,0.717-0.186,1.553-1.062,1.945c-0.469,0.209-1.017,0.373-1.722,0.52
		c-0.498,0.104-0.817,0.361-1.005,0.816c-0.114,0.277-0.207,0.582-0.278,0.908c-0.161,0.742,0.112,1.219,0.816,1.415
		c0.57,0.161,1.16,0.269,1.68,0.362c0.199,0.035,0.386,0.068,0.557,0.104c1.895-0.206,3.488-0.611,5.014-1.275
		c1.491-0.649,2.852-1.605,4.044-2.846l0.125-0.129l0.178,0.032c0.05,0.009,0.1,0.015,0.151,0.015c0.182,0,0.502-0.064,0.604-0.491
		c0.096-0.402,0.223-0.794,0.346-1.173c0.249-0.771,0.483-1.499,0.466-2.285l-0.008-0.411l0.404,0.075
		c0.414,0.077,0.854,0.164,1.287,0.316c0.141,0.051,0.27,0.062,0.378,0.036l0.188-0.043l0.132,0.14
		c0.101,0.106,0.207,0.164,0.345,0.186c1.204,0.201,2.408,0.394,3.428,0.558l1.03,0.166l0.162-0.009
		c1.754-0.108,3.021-0.187,4.186-0.717c0.487-0.223,0.975-0.515,1.449-0.867c0.571-0.425,0.854-1.099,1.139-1.871
		c0.135-0.369,0.204-0.921-0.229-1.445c-0.739-0.895-1.716-1.48-3.073-1.84c-0.752-0.2-1.239-0.067-1.74,0.481
		c-0.843,0.927-1.938,1.612-3.255,2.037c-0.519,0.166-1.248,0.11-1.809-0.126c-0.35-0.149-0.593-0.427-0.687-0.785
		c-0.124-0.464,0.022-1.029,0.39-1.509c0.902-1.178,2.16-1.92,3.849-2.268c0.351-0.073,0.633-0.188,0.816-0.333
		c1.358-1.068,2.473-2.459,3.406-4.254c1.197-2.303,1.292-4.746,0.279-7.259c-0.438-1.09-1.355-1.741-2.454-1.741
		c-0.125,0-0.251,0.009-0.374,0.026c-1.312,0.187-2.504,0.74-3.448,1.601c-2.436,2.225-4.187,4.311-5.507,6.563
		c-1.133,1.933-1.904,3.997-2.36,6.311c-0.032,0.161-0.007,0.251,0.042,0.336l0.08,0.14l-0.059,0.15
		c-0.322,0.816-0.513,1.571-0.579,2.309l-0.011,0.133l-0.102,0.088c-0.04,0.035-0.084,0.071-0.128,0.107l-0.174,0.139l-0.194-0.105
		c-0.047-0.025-0.098-0.046-0.153-0.064l-0.442-0.139c-0.82-0.258-1.594-0.501-2.415-0.587l-0.133-0.014l-0.087-0.101
		c-0.089-0.104-0.209-0.205-0.328-0.277c-1.47-0.88-3.137-1.878-5.034-2.359c-1.433-0.365-3.328-0.785-5.272-0.785
		c-0.57,0-1.134,0.036-1.679,0.107c-1.566,0.201-3.39,0.551-5.041,1.607c-1.076,0.69-1.747,1.5-2.055,2.475
		c-0.143,0.457-0.163,0.97-0.052,1.339c0.288,0.961,1.054,1.6,1.862,2.276l0.148,0.125c1.271,1.069,2.812,1.481,4.445,1.917
		l0.451,0.121c0.984,0.265,1.971,0.301,2.808,0.301c0.377,0,0.754-0.009,1.133-0.017c0.255-0.006,0.509-0.012,0.763-0.016
		c0.059,0,0.17-0.057,0.26-0.102l0.135-0.065c0.192-0.089,0.385-0.188,0.577-0.286c0.407-0.211,0.83-0.426,1.28-0.573
		C146.33,36.701,146.494,36.675,146.665,36.675z M158.87,35.95c-0.051,0.739-0.273,1.425-0.489,2.093
		c-0.097,0.301-0.196,0.61-0.278,0.92l0.052-0.088c0.091-0.155,0.316-0.521,0.726-0.501c0.075-0.222,0.151-0.415,0.237-0.6
		c0.239-0.507,0.856-0.786,1.457-0.677c0.007-0.008,0.012-0.015,0.019-0.022c0.059-0.063,0.167-0.138,0.34-0.138
		c0.128,0,0.265,0.038,0.506,0.117c1.634,0.533,3.543,1.101,5.521,1.101l0,0c0.35,0,0.698-0.018,1.037-0.052
		c1.641-0.167,3.015-0.644,4.202-1.46c1.138-0.78,1.858-1.891,2.084-3.211c0.35-2.024-0.788-3.943-2.768-4.666
		c-0.5-0.183-1.005-0.345-1.513-0.508l-0.075-0.024c-0.104-0.034-0.419-0.135-0.52-0.427c-0.091-0.265,0.045-0.516,0.156-0.681
		c0.929-1.383,1.528-2.511,1.947-3.656c1.153-3.15,1.309-5.592,0.505-7.918c-0.396-1.142-1.062-1.927-1.982-2.335
		c-1.882-0.836-3.523-0.815-5.173,0.061c-1.799,0.954-3.37,2.338-4.803,4.23c-1.286,1.701-2.312,3.536-3.051,5.454l-0.195,0.504
		c-0.528,1.361-1.028,2.646-1.156,4.058c-0.004,0.043-0.008,0.087-0.011,0.131c0.483-2.075,1.23-3.959,2.271-5.737
		c1.355-2.312,3.146-4.447,5.634-6.719c1.043-0.952,2.359-1.563,3.804-1.769c1.515-0.213,2.946,0.642,3.544,2.127
		c1.088,2.703,0.985,5.333-0.307,7.818c-0.979,1.881-2.151,3.344-3.586,4.471c-0.268,0.21-0.636,0.366-1.094,0.461
		c-1.523,0.313-2.652,0.974-3.452,2.02c-0.24,0.312-0.345,0.669-0.275,0.931c0.041,0.158,0.144,0.271,0.303,0.339
		c0.411,0.174,0.983,0.22,1.342,0.105c1.204-0.388,2.203-1.01,2.966-1.85c0.661-0.727,1.408-0.942,2.407-0.678
		c1.479,0.394,2.596,1.067,3.417,2.061c0.495,0.6,0.617,1.346,0.341,2.103c-0.262,0.713-0.589,1.598-1.367,2.177
		c-0.512,0.379-1.04,0.695-1.57,0.938c-1.278,0.582-2.666,0.669-4.422,0.776l-0.236,0.014l-1.104-0.177
		c-1.019-0.163-2.225-0.355-3.43-0.557c-0.223-0.036-0.418-0.123-0.589-0.263c-0.187,0.013-0.375-0.016-0.567-0.085
		C159.409,36.072,159.139,36.005,158.87,35.95z"/>
</g>
<g>
	<path fill="#EDEDED" d="M217.402,53.142c2.594,0.312,2.401,0.725-0.588,1.238c-2.992,0.512-9.046,0.523-18.151,0.032
		c-8.584-0.491-39.227-0.612-91.922-0.368c-52.692,0.245-84.503,0.168-95.436-0.234c-8.847-0.401-9.758-0.713-2.729-0.935
		c6.502-0.179,22.764-0.38,48.791-0.603C150.265,51.425,203.603,51.714,217.402,53.142z"/>
</g>
<g enable-background="new    ">
	<path fill="#A5D4BD" d="M95.395,60.467l0.553-0.189c0.36-0.131,0.778-0.197,1.254-0.197c0.017,0,0.031,0,0.044,0
		c0.501,0.004,0.897,0.074,1.19,0.211c0.229,0.111,0.432,0.287,0.607,0.525c0.175,0.24,0.263,0.465,0.263,0.675
		c0,0.228-0.127,0.525-0.383,0.892c-0.255,0.367-0.567,0.705-0.936,1.012c-0.411,0.34-0.76,0.574-1.044,0.705
		c-0.285,0.131-0.591,0.195-0.917,0.195h-0.431l0.075,1.162c0.093,0.309,0.14,0.55,0.14,0.723c0,0.086-0.002,0.156-0.006,0.209
		c-0.017,0.157-0.068,0.252-0.155,0.285c-0.042,0.016-0.076,0.024-0.103,0.024s-0.047-0.009-0.059-0.024
		c-0.042-0.105-0.066-1.068-0.075-2.889c0-0.152,0-0.277,0-0.375L95.395,60.467z M95.892,62.523
		c-0.004,0.183-0.006,0.349-0.006,0.498c0,0.56,0.025,0.875,0.074,0.945c0.033,0.041,0.095,0.062,0.187,0.062
		c0.364,0,0.847-0.25,1.449-0.747c0.603-0.497,0.988-0.966,1.158-1.405c0.038-0.104,0.056-0.209,0.056-0.317
		s-0.019-0.216-0.056-0.323c-0.074-0.211-0.209-0.354-0.403-0.43c-0.314-0.145-0.706-0.217-1.173-0.217
		c-0.058,0-0.118,0.002-0.18,0.006c-0.55,0.021-0.875,0.116-0.975,0.286C95.964,60.965,95.921,61.512,95.892,62.523z"/>
	<path fill="#A5D4BD" d="M99.604,62.816c0.083-0.518,0.211-0.94,0.385-1.27c0.174-0.328,0.491-0.73,0.95-1.206
		c0.339-0.364,0.614-0.546,0.826-0.546c0.236,0,0.489,0.078,0.757,0.236c0.268,0.158,0.491,0.359,0.669,0.604
		c0.137,0.195,0.225,0.397,0.262,0.607c0.038,0.209,0.056,0.635,0.056,1.278c0,0.55,0.02,0.956,0.058,1.224
		c0.039,0.266,0.099,0.483,0.181,0.652c0.159,0.293,0.239,0.515,0.239,0.663c0,0.058-0.012,0.103-0.037,0.136
		c-0.017,0.025-0.043,0.037-0.081,0.037c-0.012,0-0.027-0.002-0.043-0.006c-0.136-0.041-0.281-0.213-0.434-0.517
		s-0.254-0.604-0.303-0.903c-0.05-0.353-0.09-0.541-0.119-0.566c-0.008-0.008-0.029,0.004-0.062,0.037
		c-0.033,0.033-0.074,0.084-0.121,0.15c-0.048,0.068-0.097,0.146-0.146,0.231c-0.211,0.337-0.497,0.66-0.856,0.971
		c-0.36,0.311-0.668,0.495-0.925,0.554c-0.104,0.024-0.203,0.037-0.298,0.037c-0.36,0.004-0.629-0.168-0.807-0.517
		c-0.145-0.278-0.217-0.636-0.217-1.075C99.536,63.385,99.559,63.113,99.604,62.816z M100.045,64.127
		c0.025,0.148,0.101,0.285,0.229,0.412c0.137,0.136,0.275,0.203,0.416,0.203c0.058,0,0.12-0.012,0.186-0.037
		c0.207-0.082,0.516-0.338,0.925-0.77c0.414-0.434,0.699-0.819,0.856-1.153c0.157-0.335,0.236-0.724,0.236-1.167
		c0-0.258-0.021-0.455-0.062-0.59c-0.042-0.137-0.126-0.26-0.254-0.37c-0.199-0.188-0.393-0.283-0.583-0.283
		c-0.017,0-0.033,0-0.05,0c-0.207,0.021-0.437,0.162-0.689,0.425c-0.431,0.447-0.722,0.828-0.875,1.143
		c-0.153,0.312-0.256,0.738-0.31,1.276c-0.025,0.279-0.038,0.503-0.038,0.671C100.028,63.99,100.032,64.069,100.045,64.127z"/>
	<path fill="#A5D4BD" d="M104.272,60.607c0-0.136,0.192-0.266,0.577-0.391l0.878-0.229c0.048-0.037,0.072-0.228,0.072-0.571
		c0-0.091-0.003-0.194-0.011-0.311c-0.009-0.133-0.014-0.25-0.014-0.354c0-0.311,0.041-0.468,0.121-0.472h0.007
		c0.107,0,0.199,0.267,0.275,0.801l0.094,0.776l0.764,0.024c0.592,0.024,0.9,0.089,0.925,0.192c0.024,0.083-0.183,0.127-0.621,0.131
		c-0.493,0-0.784,0.033-0.875,0.099c-0.066,0.05-0.124,0.742-0.172,2.077c-0.049,1.334-0.106,2.033-0.172,2.095
		c-0.044,0.046-0.083,0.068-0.119,0.068c-0.083,0-0.144-0.112-0.186-0.335c-0.023-0.133-0.034-0.288-0.034-0.466
		c0-0.216,0.016-0.464,0.048-0.745c0.074-0.729,0.118-1.352,0.132-1.869v-0.764l-0.673,0.172c-0.414,0.125-0.687,0.199-0.818,0.225
		c-0.048,0.018-0.092,0.011-0.134-0.02C104.293,60.711,104.272,60.666,104.272,60.607z"/>
	<path fill="#A5D4BD" d="M108.248,58.423c-0.03-0.07-0.045-0.132-0.045-0.187c0-0.1,0.044-0.182,0.132-0.248
		c0.088-0.062,0.171-0.093,0.248-0.093c0.046-0.004,0.092,0.006,0.138,0.031c0.115,0.066,0.182,0.193,0.202,0.378
		c0.016,0.17,0.009,0.279-0.023,0.326c-0.032,0.048-0.121,0.071-0.267,0.071C108.458,58.702,108.331,58.609,108.248,58.423z
		 M108.426,62.57c0-0.906,0.013-1.505,0.038-1.795c0.026-0.289,0.074-0.434,0.145-0.434c0.082,0,0.146,0.027,0.193,0.083
		c0.047,0.056,0.09,0.186,0.129,0.388c0.039,0.203,0.07,0.464,0.095,0.783c0.025,0.318,0.052,0.777,0.082,1.377
		c0.02,0.56,0.032,0.986,0.037,1.279c0,0.041,0,0.083,0,0.125c0,0.239-0.011,0.438-0.033,0.596
		c-0.027,0.186-0.068,0.302-0.124,0.348c-0.056,0.045-0.137,0.068-0.244,0.068c-0.13,0-0.216-0.18-0.257-0.537
		C108.446,64.493,108.426,63.732,108.426,62.57z"/>
	<path fill="#A5D4BD" d="M109.407,64.6c-0.004-0.016-0.006-0.031-0.006-0.043c0-0.033,0.027-0.044,0.081-0.031
		c0.05,0.017,0.135,0.054,0.255,0.111c0.238,0.129,0.535,0.193,0.891,0.193s0.692-0.047,1.01-0.141
		c0.318-0.093,0.588-0.227,0.812-0.4c0.223-0.174,0.334-0.357,0.334-0.553c0-0.152-0.14-0.346-0.418-0.58
		c-0.279-0.233-0.579-0.4-0.901-0.5c-0.685-0.219-1.174-0.469-1.466-0.751c-0.217-0.211-0.325-0.444-0.325-0.701
		c0-0.087,0.013-0.176,0.038-0.267c0.033-0.145,0.195-0.285,0.488-0.42c0.292-0.134,0.681-0.253,1.166-0.356
		c0.104-0.024,0.205-0.037,0.305-0.037c0.21,0,0.411,0.054,0.601,0.161c0.239,0.133,0.361,0.294,0.365,0.484
		c0,0.033-0.004,0.068-0.012,0.105c-0.025,0.153-0.089,0.232-0.192,0.236c-0.104,0.004-0.176-0.07-0.217-0.225
		c-0.045-0.178-0.2-0.272-0.464-0.285c-0.021,0-0.042,0-0.062,0c-0.252,0-0.537,0.066-0.854,0.199
		c-0.388,0.166-0.584,0.34-0.588,0.521c0,0.115,0.078,0.233,0.235,0.354c0.21,0.162,0.569,0.348,1.078,0.559
		c0.59,0.236,1.014,0.473,1.27,0.711c0.256,0.238,0.384,0.51,0.384,0.816c0,0.355-0.245,0.693-0.733,1.012
		c-0.489,0.318-1,0.479-1.535,0.479c-0.291,0-0.609-0.072-0.956-0.218C109.643,64.89,109.448,64.744,109.407,64.6z"/>
	<path fill="#A5D4BD" d="M113.474,64.6c-0.004-0.016-0.006-0.031-0.006-0.043c0-0.033,0.027-0.044,0.081-0.031
		c0.05,0.017,0.135,0.054,0.255,0.111c0.238,0.129,0.535,0.193,0.892,0.193c0.355,0,0.692-0.047,1.01-0.141
		c0.318-0.093,0.589-0.227,0.812-0.4s0.334-0.357,0.334-0.553c0-0.152-0.139-0.346-0.418-0.58c-0.278-0.233-0.579-0.4-0.9-0.5
		c-0.686-0.219-1.175-0.469-1.467-0.751c-0.216-0.211-0.325-0.444-0.325-0.701c0-0.087,0.013-0.176,0.038-0.267
		c0.033-0.145,0.195-0.285,0.488-0.42c0.292-0.134,0.68-0.253,1.165-0.356c0.104-0.024,0.205-0.037,0.305-0.037
		c0.21,0,0.411,0.054,0.601,0.161c0.239,0.133,0.361,0.294,0.365,0.484c0,0.033-0.004,0.068-0.013,0.105
		c-0.024,0.153-0.088,0.232-0.191,0.236s-0.176-0.07-0.217-0.225c-0.046-0.178-0.2-0.272-0.465-0.285c-0.021,0-0.041,0-0.062,0
		c-0.252,0-0.537,0.066-0.854,0.199c-0.389,0.166-0.585,0.34-0.589,0.521c0,0.115,0.079,0.233,0.235,0.354
		c0.211,0.162,0.57,0.348,1.078,0.559c0.59,0.236,1.014,0.473,1.27,0.711c0.257,0.238,0.385,0.51,0.385,0.816
		c0,0.355-0.244,0.693-0.733,1.012c-0.488,0.318-1,0.479-1.534,0.479c-0.291,0-0.609-0.072-0.956-0.218
		C113.709,64.89,113.515,64.744,113.474,64.6z"/>
	<path fill="#A5D4BD" d="M117.57,62.998c-0.029-0.129-0.044-0.27-0.044-0.423c0-0.203,0.025-0.427,0.075-0.671
		c0.096-0.438,0.281-0.836,0.557-1.194s0.608-0.626,0.998-0.804c0.257-0.115,0.475-0.176,0.652-0.18
		c0.029,0,0.059,0.004,0.087,0.012c0.195,0.025,0.402,0.129,0.622,0.311c0.515,0.422,0.771,0.815,0.771,1.184
		c0,0.178-0.062,0.35-0.188,0.516c-0.183,0.249-0.591,0.391-1.224,0.424c-0.096,0.005-0.185,0.007-0.268,0.007
		c-0.502,0-0.89-0.089-1.164-0.267c-0.145-0.098-0.236-0.133-0.273-0.105c-0.037,0.026-0.072,0.146-0.105,0.359
		c-0.029,0.16-0.044,0.312-0.044,0.459c0,0.564,0.226,1.042,0.678,1.43c0.477,0.409,1.082,0.613,1.816,0.613
		c0.145,0,0.294-0.008,0.447-0.025c0.162-0.016,0.292-0.024,0.392-0.024c0.149,0,0.225,0.019,0.225,0.057
		c0,0.063-0.187,0.157-0.56,0.283c-0.252,0.088-0.513,0.132-0.782,0.132c-0.289,0-0.587-0.049-0.894-0.148
		c-0.596-0.191-1.034-0.495-1.316-0.913C117.79,63.647,117.637,63.304,117.57,62.998z M118.385,61.487
		c0.049,0.048,0.406,0.099,1.069,0.151c0.158,0.013,0.301,0.021,0.43,0.025c0.432,0,0.722-0.074,0.871-0.219
		c0.07-0.069,0.105-0.148,0.105-0.237c0-0.167-0.112-0.37-0.336-0.614c-0.216-0.234-0.467-0.352-0.753-0.352
		c-0.104,0-0.209,0.016-0.317,0.049c-0.423,0.113-0.75,0.396-0.982,0.85c-0.07,0.134-0.106,0.229-0.106,0.285
		C118.365,61.455,118.372,61.475,118.385,61.487z"/>
	<path fill="#A5D4BD" d="M121.829,63.688c0-0.025,0-0.05,0-0.074c0-0.713,0.031-1.408,0.093-2.086
		c0.059-0.704,0.147-1.056,0.268-1.056s0.188,0.163,0.205,0.49c0,0.079,0.004,0.118,0.012,0.118c0.025,0,0.083-0.129,0.174-0.385
		c0.129-0.356,0.253-0.571,0.373-0.646c0.157-0.074,0.374-0.111,0.651-0.111c0.079,0,0.161,0.004,0.248,0.013
		c0.397,0.024,0.8,0.101,1.208,0.227c0.407,0.126,0.634,0.257,0.68,0.394c0.024,0.059,0.039,0.104,0.043,0.137
		c0,0.07-0.041,0.105-0.124,0.105c-0.104,0-0.285-0.052-0.546-0.156c-0.377-0.14-0.778-0.209-1.204-0.209
		c-0.005,0.004-0.011,0.006-0.019,0.006c-0.439,0-0.714,0.062-0.826,0.188c-0.104,0.137-0.242,0.881-0.416,2.23
		c-0.186,1.467-0.372,2.201-0.559,2.201h-0.006c-0.05,0-0.1-0.044-0.149-0.131C121.864,64.842,121.829,64.424,121.829,63.688z"/>
	<path fill="#A5D4BD" d="M126.108,58.423c-0.03-0.07-0.045-0.132-0.045-0.187c0-0.1,0.044-0.182,0.133-0.248
		c0.088-0.062,0.171-0.093,0.247-0.093c0.046-0.004,0.093,0.006,0.139,0.031c0.115,0.066,0.183,0.193,0.201,0.378
		c0.017,0.17,0.009,0.279-0.022,0.326c-0.032,0.048-0.121,0.071-0.267,0.071C126.32,58.702,126.191,58.609,126.108,58.423z
		 M126.287,62.57c0-0.906,0.013-1.505,0.038-1.795c0.025-0.289,0.074-0.434,0.145-0.434c0.082,0,0.146,0.027,0.193,0.083
		s0.09,0.186,0.129,0.388c0.039,0.203,0.071,0.464,0.096,0.783c0.025,0.318,0.052,0.777,0.082,1.377
		c0.02,0.56,0.032,0.986,0.037,1.279c0,0.041,0,0.083,0,0.125c0,0.239-0.011,0.438-0.033,0.596
		c-0.026,0.186-0.068,0.302-0.124,0.348c-0.056,0.045-0.137,0.068-0.243,0.068c-0.131,0-0.216-0.18-0.258-0.537
		C126.308,64.493,126.287,63.732,126.287,62.57z"/>
	<path fill="#A5D4BD" d="M127.299,62.998c-0.029-0.129-0.044-0.27-0.044-0.423c0-0.203,0.025-0.427,0.075-0.671
		c0.096-0.438,0.281-0.836,0.557-1.194s0.608-0.626,0.998-0.804c0.257-0.115,0.475-0.176,0.652-0.18
		c0.029,0,0.059,0.004,0.087,0.012c0.195,0.025,0.402,0.129,0.622,0.311c0.515,0.422,0.771,0.815,0.771,1.184
		c0,0.178-0.062,0.35-0.188,0.516c-0.183,0.249-0.591,0.391-1.224,0.424c-0.096,0.005-0.185,0.007-0.268,0.007
		c-0.502,0-0.89-0.089-1.164-0.267c-0.145-0.098-0.236-0.133-0.273-0.105c-0.037,0.026-0.072,0.146-0.105,0.359
		c-0.029,0.16-0.044,0.312-0.044,0.459c0,0.564,0.226,1.042,0.678,1.43c0.477,0.409,1.082,0.613,1.816,0.613
		c0.145,0,0.294-0.008,0.447-0.025c0.162-0.016,0.292-0.024,0.392-0.024c0.149,0,0.225,0.019,0.225,0.057
		c0,0.063-0.187,0.157-0.56,0.283c-0.252,0.088-0.513,0.132-0.782,0.132c-0.289,0-0.587-0.049-0.894-0.148
		c-0.596-0.191-1.034-0.495-1.316-0.913C127.519,63.647,127.365,63.304,127.299,62.998z M128.113,61.487
		c0.049,0.048,0.406,0.099,1.069,0.151c0.158,0.013,0.301,0.021,0.43,0.025c0.432,0,0.722-0.074,0.871-0.219
		c0.07-0.069,0.105-0.148,0.105-0.237c0-0.167-0.112-0.37-0.336-0.614c-0.216-0.234-0.467-0.352-0.753-0.352
		c-0.104,0-0.209,0.016-0.317,0.049c-0.423,0.113-0.75,0.396-0.982,0.85c-0.07,0.134-0.106,0.229-0.106,0.285
		C128.094,61.455,128.101,61.475,128.113,61.487z"/>
</g>
<g enable-background="new    ">
	<path fill="#EDEDED" d="M131.609,66.865c-0.05-0.041,0.021-0.32,0.211-0.838c0.146-0.372,0.223-0.656,0.233-0.854
		c0.01-0.196-0.045-0.473-0.165-0.828c-0.033-0.121-0.041-0.203-0.024-0.249s0.062-0.067,0.137-0.067
		c0.152,0,0.295,0.186,0.425,0.559c0.131,0.372,0.158,0.66,0.084,0.862c-0.058,0.153-0.155,0.349-0.292,0.587
		s-0.266,0.441-0.388,0.611S131.635,66.891,131.609,66.865z"/>
</g>
<g enable-background="new    ">
	<path fill="#A5D4BD" d="M138.178,60.961c0.034-0.178,0.09-0.293,0.167-0.347c0.027-0.021,0.055-0.031,0.082-0.031
		c0.038,0,0.071,0.029,0.098,0.087c0.027,0.059,0.041,0.135,0.041,0.229c0,0.054-0.005,0.114-0.013,0.18
		c-0.013,0.07-0.017,0.145-0.013,0.224c0,0.289,0.068,0.66,0.205,1.115c0.179,0.578,0.4,1.082,0.665,1.512
		c0.232,0.377,0.425,0.564,0.578,0.564c0.025,0,0.048-0.004,0.068-0.012c0.17-0.059,0.36-0.307,0.572-0.744
		c0.211-0.434,0.383-0.911,0.516-1.432c0.1-0.385,0.149-0.709,0.149-0.974c0-0.091-0.007-0.171-0.019-0.241
		c-0.013-0.1-0.02-0.182-0.02-0.248c0-0.157,0.033-0.236,0.1-0.236c0.179,0,0.365,0.386,0.56,1.155
		c0.39,1.593,0.702,2.43,0.938,2.508c0.05,0.017,0.102,0.009,0.155-0.024c0.104-0.066,0.263-0.318,0.479-0.754
		c0.216-0.438,0.353-0.783,0.41-1.041c0.05-0.272,0.085-0.648,0.105-1.129c0.017-0.477,0.063-0.715,0.141-0.715
		c0.004,0,0.01,0,0.018,0c0.041,0.018,0.079,0.077,0.116,0.18c0.024,0.066,0.036,0.213,0.036,0.441c0,0.16-0.006,0.361-0.018,0.602
		c-0.029,0.584-0.074,0.969-0.136,1.155c-0.12,0.381-0.271,0.722-0.455,1.024s-0.375,0.508-0.573,0.615
		c-0.193,0.119-0.322,0.18-0.384,0.18c-0.062,0-0.149-0.052-0.261-0.155c-0.146-0.153-0.336-0.58-0.572-1.28l-0.36-1.057
		l-0.174,0.559c-0.162,0.494-0.355,0.931-0.581,1.312c-0.227,0.381-0.424,0.608-0.594,0.684c-0.104,0.049-0.195,0.074-0.273,0.074
		c-0.028,0-0.053-0.004-0.073-0.013c-0.086-0.024-0.216-0.122-0.391-0.292c-0.383-0.373-0.722-0.973-1.015-1.801
		c-0.211-0.6-0.317-1.095-0.317-1.484C138.137,61.207,138.15,61.077,138.178,60.961z"/>
	<path fill="#A5D4BD" d="M144.593,62.019c0-0.507,0.154-0.979,0.464-1.415c0.31-0.438,0.709-0.752,1.199-0.945
		c0.244-0.096,0.479-0.143,0.705-0.143c0.08,0,0.152,0.004,0.22,0.012c0.292,0.042,0.528,0.159,0.708,0.353
		c0.238,0.26,0.476,0.578,0.712,0.955c0.235,0.377,0.41,0.714,0.523,1.011c0.066,0.197,0.1,0.357,0.1,0.481c0,0.013,0,0.027,0,0.044
		c-0.008,0.133-0.068,0.339-0.18,0.617c-0.162,0.441-0.435,0.857-0.815,1.251c-0.382,0.394-0.735,0.618-1.059,0.677
		c-0.083,0.013-0.168,0.02-0.255,0.02c-0.212-0.005-0.434-0.049-0.666-0.131c-0.324-0.125-0.616-0.32-0.878-0.586
		c-0.187-0.188-0.363-0.518-0.529-0.991S144.593,62.352,144.593,62.019z M145.09,62.074c0,0.539,0.106,1.018,0.32,1.436
		c0.213,0.418,0.496,0.709,0.849,0.873c0.183,0.087,0.366,0.13,0.553,0.13c0.175,0,0.353-0.037,0.535-0.11
		c0.609-0.244,1.043-0.67,1.3-1.279c0.124-0.296,0.185-0.582,0.181-0.857c0-0.293-0.069-0.576-0.206-0.852
		c-0.058-0.119-0.119-0.213-0.183-0.278c-0.064-0.065-0.115-0.087-0.152-0.062c-0.042,0.024-0.088-0.006-0.138-0.09
		s-0.129-0.203-0.239-0.357c-0.109-0.154-0.241-0.283-0.395-0.387c-0.257-0.16-0.469-0.242-0.634-0.246c-0.005,0-0.009,0-0.013,0
		c-0.166,0-0.388,0.069-0.666,0.209c-0.39,0.202-0.67,0.447-0.842,0.738C145.188,61.231,145.098,61.609,145.09,62.074z"/>
	<path fill="#A5D4BD" d="M149.46,63.688c0-0.025,0-0.05,0-0.074c0-0.713,0.031-1.408,0.093-2.086
		c0.059-0.704,0.147-1.056,0.268-1.056s0.188,0.163,0.205,0.49c0,0.079,0.004,0.118,0.012,0.118c0.025,0,0.083-0.129,0.174-0.385
		c0.129-0.356,0.253-0.571,0.373-0.646c0.157-0.074,0.374-0.111,0.651-0.111c0.079,0,0.161,0.004,0.248,0.013
		c0.397,0.024,0.8,0.101,1.208,0.227c0.407,0.126,0.634,0.257,0.68,0.394c0.024,0.059,0.039,0.104,0.043,0.137
		c0,0.07-0.041,0.105-0.124,0.105c-0.104,0-0.285-0.052-0.546-0.156c-0.377-0.14-0.778-0.209-1.204-0.209
		c-0.005,0.004-0.011,0.006-0.019,0.006c-0.439,0-0.714,0.062-0.826,0.188c-0.104,0.137-0.242,0.881-0.416,2.23
		c-0.186,1.467-0.372,2.201-0.559,2.201h-0.006c-0.05,0-0.1-0.044-0.149-0.131C149.495,64.842,149.46,64.424,149.46,63.688z"/>
	<path fill="#A5D4BD" d="M153.749,64.612c0.028-0.22,0.052-0.867,0.068-1.943c0.018-1.075,0.033-2.171,0.048-3.284
		s0.026-1.726,0.036-1.837c0-0.041,0.015-0.062,0.044-0.062c0.035,0.004,0.089,0.035,0.163,0.093
		c0.112,0.095,0.169,0.679,0.169,1.75c0,0.231-0.002,0.484-0.006,0.757l-0.031,2.341l0.385-0.534
		c0.22-0.297,0.658-0.792,1.316-1.483c0.658-0.69,1.021-1.036,1.087-1.036c0.065,0,0.099,0.029,0.099,0.086
		c0,0.066-0.045,0.174-0.137,0.323c-0.065,0.12-0.154,0.233-0.267,0.342c-0.307,0.339-0.546,0.653-0.72,0.943
		c-0.141,0.231-0.211,0.407-0.211,0.528c0,0.028,0.004,0.055,0.012,0.08c0.05,0.153,0.482,0.65,1.298,1.49
		c0.823,0.84,1.235,1.332,1.235,1.477c0,0.018-0.004,0.029-0.013,0.038c-0.008,0.009-0.021,0.013-0.037,0.013
		c-0.145,0-0.616-0.367-1.415-1.1c-0.153-0.145-0.317-0.295-0.491-0.453l-1.173-1.123l-0.304,0.322
		c-0.195,0.211-0.354,0.316-0.479,0.316s-0.187,0.328-0.187,0.981c0,0.989-0.141,1.483-0.422,1.483h-0.006
		c-0.062,0-0.094-0.061-0.094-0.18C153.719,64.858,153.729,64.748,153.749,64.612z"/>
	<path fill="#A5D4BD" d="M158.55,64.6c-0.004-0.016-0.006-0.031-0.006-0.043c0-0.033,0.026-0.044,0.08-0.031
		c0.05,0.017,0.135,0.054,0.255,0.111c0.238,0.129,0.535,0.193,0.892,0.193c0.355,0,0.692-0.047,1.01-0.141
		c0.318-0.093,0.589-0.227,0.812-0.4s0.334-0.357,0.334-0.553c0-0.152-0.139-0.346-0.418-0.58c-0.278-0.233-0.579-0.4-0.9-0.5
		c-0.686-0.219-1.175-0.469-1.466-0.751c-0.217-0.211-0.325-0.444-0.325-0.701c0-0.087,0.012-0.176,0.037-0.267
		c0.033-0.145,0.195-0.285,0.487-0.42c0.293-0.134,0.681-0.253,1.166-0.356c0.104-0.024,0.205-0.037,0.305-0.037
		c0.21,0,0.411,0.054,0.601,0.161c0.239,0.133,0.361,0.294,0.365,0.484c0,0.033-0.004,0.068-0.013,0.105
		c-0.024,0.153-0.088,0.232-0.191,0.236s-0.176-0.07-0.217-0.225c-0.046-0.178-0.2-0.272-0.465-0.285c-0.021,0-0.041,0-0.062,0
		c-0.252,0-0.537,0.066-0.854,0.199c-0.389,0.166-0.584,0.34-0.589,0.521c0,0.115,0.079,0.233,0.235,0.354
		c0.211,0.162,0.57,0.348,1.078,0.559c0.59,0.236,1.014,0.473,1.27,0.711c0.257,0.238,0.385,0.51,0.385,0.816
		c0,0.355-0.244,0.693-0.733,1.012c-0.488,0.318-1,0.479-1.534,0.479c-0.291,0-0.609-0.072-0.956-0.218
		C158.785,64.89,158.591,64.744,158.55,64.6z"/>
	<path fill="#A5D4BD" d="M162.651,64.671c-0.036-0.089-0.055-0.227-0.055-0.413c0-0.186,0.005-0.451,0.016-0.794
		c0.011-0.344,0.036-0.775,0.077-1.295s0.091-1.163,0.151-1.931c0.152-1.938,0.282-2.908,0.39-2.908
		c0.064,0,0.111,0.046,0.141,0.139c0.03,0.092,0.045,0.262,0.045,0.511c0,0.249-0.018,0.56-0.054,0.935
		c-0.036,0.373-0.084,0.87-0.145,1.489c-0.107,1.163-0.161,1.909-0.161,2.241c0,0.128,0.009,0.192,0.026,0.192
		c0.029,0.009,0.107-0.209,0.235-0.651c0.246-0.746,0.446-1.236,0.602-1.475c0.154-0.238,0.369-0.383,0.646-0.432
		c0.163-0.029,0.323-0.044,0.482-0.044c0.189,0,0.372,0.021,0.549,0.062c0.328,0.079,0.563,0.215,0.707,0.409
		c0.294,0.365,0.511,1.221,0.649,2.57c0.021,0.27,0.032,0.484,0.032,0.646c0,0.079-0.002,0.144-0.006,0.192
		c-0.018,0.153-0.084,0.299-0.2,0.436c-0.125,0.145-0.2,0.195-0.226,0.154c-0.025-0.058-0.048-0.385-0.064-0.98
		c-0.017-1.01-0.139-1.758-0.367-2.244c-0.228-0.486-0.562-0.729-1.005-0.729c-0.326,0-0.585,0.102-0.777,0.304
		c-0.192,0.203-0.374,0.562-0.546,1.08c-0.171,0.518-0.369,1.318-0.595,2.402c-0.038,0.203-0.14,0.305-0.306,0.305
		c-0.069,0-0.117-0.006-0.146-0.019S162.688,64.76,162.651,64.671z"/>
	<path fill="#A5D4BD" d="M167.209,62.019c0-0.507,0.154-0.979,0.464-1.415c0.31-0.438,0.709-0.752,1.199-0.945
		c0.244-0.096,0.479-0.143,0.705-0.143c0.08,0,0.152,0.004,0.22,0.012c0.292,0.042,0.528,0.159,0.708,0.353
		c0.238,0.26,0.476,0.578,0.712,0.955c0.235,0.377,0.41,0.714,0.523,1.011c0.066,0.197,0.1,0.357,0.1,0.481c0,0.013,0,0.027,0,0.044
		c-0.008,0.133-0.068,0.339-0.18,0.617c-0.162,0.441-0.435,0.857-0.815,1.251c-0.382,0.394-0.735,0.618-1.059,0.677
		c-0.083,0.013-0.168,0.02-0.255,0.02c-0.212-0.005-0.434-0.049-0.666-0.131c-0.324-0.125-0.616-0.32-0.878-0.586
		c-0.187-0.188-0.363-0.518-0.529-0.991S167.209,62.352,167.209,62.019z M167.706,62.074c0,0.539,0.106,1.018,0.32,1.436
		c0.213,0.418,0.496,0.709,0.849,0.873c0.183,0.087,0.366,0.13,0.553,0.13c0.175,0,0.353-0.037,0.535-0.11
		c0.609-0.244,1.043-0.67,1.3-1.279c0.124-0.296,0.185-0.582,0.181-0.857c0-0.293-0.069-0.576-0.206-0.852
		c-0.058-0.119-0.119-0.213-0.183-0.278c-0.064-0.065-0.115-0.087-0.152-0.062c-0.042,0.024-0.088-0.006-0.138-0.09
		s-0.129-0.203-0.239-0.357c-0.109-0.154-0.241-0.283-0.395-0.387c-0.257-0.16-0.469-0.242-0.634-0.246c-0.005,0-0.009,0-0.013,0
		c-0.166,0-0.388,0.069-0.666,0.209c-0.39,0.202-0.67,0.447-0.842,0.738C167.804,61.231,167.714,61.609,167.706,62.074z"/>
	<path fill="#A5D4BD" d="M172.076,60.467l0.553-0.189c0.36-0.131,0.778-0.197,1.254-0.197c0.017,0,0.031,0,0.044,0
		c0.501,0.004,0.897,0.074,1.19,0.211c0.229,0.111,0.432,0.287,0.607,0.525c0.175,0.24,0.263,0.465,0.263,0.675
		c0,0.228-0.128,0.525-0.383,0.892c-0.255,0.367-0.566,0.705-0.936,1.012c-0.411,0.34-0.76,0.574-1.045,0.705
		s-0.59,0.195-0.916,0.195h-0.431l0.075,1.162c0.093,0.309,0.14,0.55,0.14,0.723c0,0.086-0.002,0.156-0.006,0.209
		c-0.017,0.157-0.068,0.252-0.155,0.285c-0.042,0.016-0.076,0.024-0.103,0.024c-0.027,0-0.047-0.009-0.06-0.024
		c-0.041-0.105-0.065-1.068-0.074-2.889c0-0.152,0-0.277,0-0.375L172.076,60.467z M172.573,62.523
		c-0.005,0.183-0.007,0.349-0.007,0.498c0,0.56,0.025,0.875,0.075,0.945c0.032,0.041,0.095,0.062,0.186,0.062
		c0.364,0,0.848-0.25,1.45-0.747c0.602-0.497,0.987-0.966,1.157-1.405c0.037-0.104,0.056-0.209,0.056-0.317
		s-0.019-0.216-0.056-0.323c-0.074-0.211-0.209-0.354-0.403-0.43c-0.314-0.145-0.706-0.217-1.173-0.217
		c-0.059,0-0.118,0.002-0.181,0.006c-0.55,0.021-0.875,0.116-0.975,0.286C172.646,60.965,172.602,61.512,172.573,62.523z"/>
	<path fill="#A5D4BD" d="M176.236,64.6c-0.004-0.016-0.006-0.031-0.006-0.043c0-0.033,0.026-0.044,0.08-0.031
		c0.05,0.017,0.135,0.054,0.255,0.111c0.238,0.129,0.535,0.193,0.892,0.193c0.355,0,0.692-0.047,1.01-0.141
		c0.318-0.093,0.589-0.227,0.812-0.4s0.334-0.357,0.334-0.553c0-0.152-0.139-0.346-0.418-0.58c-0.278-0.233-0.579-0.4-0.9-0.5
		c-0.686-0.219-1.175-0.469-1.466-0.751c-0.217-0.211-0.325-0.444-0.325-0.701c0-0.087,0.012-0.176,0.037-0.267
		c0.033-0.145,0.195-0.285,0.487-0.42c0.293-0.134,0.681-0.253,1.166-0.356c0.104-0.024,0.205-0.037,0.305-0.037
		c0.21,0,0.411,0.054,0.601,0.161c0.239,0.133,0.361,0.294,0.365,0.484c0,0.033-0.004,0.068-0.013,0.105
		c-0.024,0.153-0.088,0.232-0.191,0.236s-0.176-0.07-0.217-0.225c-0.046-0.178-0.2-0.272-0.465-0.285c-0.021,0-0.041,0-0.062,0
		c-0.252,0-0.537,0.066-0.854,0.199c-0.389,0.166-0.584,0.34-0.589,0.521c0,0.115,0.079,0.233,0.235,0.354
		c0.211,0.162,0.57,0.348,1.078,0.559c0.59,0.236,1.014,0.473,1.27,0.711c0.257,0.238,0.385,0.51,0.385,0.816
		c0,0.355-0.244,0.693-0.733,1.012c-0.488,0.318-1,0.479-1.534,0.479c-0.291,0-0.609-0.072-0.956-0.218
		C176.472,64.89,176.277,64.744,176.236,64.6z"/>
</g>
<g enable-background="new    ">
	<path fill="#EDEDED" d="M185.647,63.418c0-0.26,0.079-0.523,0.237-0.787c0.158-0.266,0.366-0.475,0.625-0.627
		c0.218-0.145,0.332-0.238,0.34-0.279c0-0.033-0.056-0.066-0.167-0.1c-0.202-0.074-0.401-0.207-0.597-0.4
		c-0.196-0.191-0.294-0.346-0.294-0.461c0-0.29,0.236-0.641,0.711-1.053c0.474-0.412,0.871-0.617,1.194-0.617
		c0.095,0,0.14-0.158,0.136-0.473s-0.024-0.615-0.062-0.906c-0.037-0.29-0.027-0.482,0.03-0.578
		c0.127-0.128,0.227,0.096,0.301,0.673c0.016,0.111,0.032,0.236,0.049,0.376c0.024,0.295,0.066,0.517,0.126,0.662
		c0.06,0.146,0.147,0.259,0.263,0.337c0.104,0.075,0.18,0.183,0.229,0.323s0.06,0.266,0.031,0.375
		c-0.029,0.109-0.094,0.164-0.192,0.164c-0.138,0-0.22-0.119-0.247-0.357c-0.009-0.041-0.022-0.032-0.041,0.024
		c0,0.017-0.012,0.052-0.034,0.108c-0.041,0.158-0.103,0.233-0.186,0.225c-0.084-0.008-0.125-0.094-0.125-0.26
		c0-0.073-0.015-0.137-0.043-0.191c-0.029-0.055-0.064-0.082-0.105-0.082c-0.128,0-0.318,0.076-0.572,0.229
		s-0.461,0.317-0.622,0.494c-0.251,0.271-0.331,0.487-0.237,0.646c0.093,0.158,0.38,0.313,0.862,0.466
		c0.235,0.075,0.433,0.151,0.593,0.228s0.232,0.132,0.216,0.165c-0.025,0.075-0.262,0.199-0.709,0.374
		c-0.76,0.299-1.139,0.715-1.139,1.251c-0.009,0.552,0.421,0.793,1.287,0.723c0.486-0.042,0.73-0.015,0.73,0.081
		c0,0.033-0.024,0.062-0.073,0.086c-0.048,0.025-0.11,0.037-0.188,0.037c-0.12,0-0.198,0.033-0.236,0.097
		c-0.037,0.064-0.043,0.151-0.019,0.261c0.025,0.109,0.06,0.226,0.103,0.348c0.044,0.122,0.08,0.262,0.108,0.42
		c0.029,0.156,0.036,0.295,0.02,0.415c-0.025,0.112-0.05,0.165-0.074,0.161c-0.033,0-0.126-0.15-0.278-0.453
		c-0.202-0.405-0.304-0.668-0.304-0.788s-0.14-0.181-0.421-0.181c-0.273,0-0.547-0.129-0.818-0.389
		C185.783,63.927,185.647,63.671,185.647,63.418z M188.236,57.197c0-0.089,0.051-0.133,0.151-0.133c0.102,0,0.153,0.044,0.155,0.133
		c0.003,0.089-0.049,0.133-0.154,0.133C188.287,57.33,188.236,57.286,188.236,57.197z"/>
</g>
<g enable-background="new    ">
	<path fill="#A5D4BD" d="M194.4,61.191c-0.013-0.07-0.019-0.135-0.019-0.192c0-0.174,0.048-0.296,0.143-0.366
		c0.05-0.041,0.105-0.037,0.168,0.013c0.024,0.033,0.068,0.436,0.13,1.208c0.062,0.771,0.108,1.166,0.137,1.184h0.007
		c0.028,0,0.115-0.256,0.261-0.768c0.211-0.767,0.399-1.302,0.564-1.607c0.166-0.305,0.346-0.457,0.54-0.457
		c0.178,0,0.415,0.189,0.711,0.568s0.505,0.762,0.628,1.148l0.236,0.797l0.274-0.748c0.191-0.506,0.387-0.949,0.586-1.328
		c0.175-0.33,0.361-0.518,0.562-0.562c0.032-0.008,0.066-0.012,0.104-0.012c0.183,0,0.398,0.095,0.646,0.285
		c0.332,0.252,0.57,0.586,0.716,1.002s0.238,1.032,0.28,1.848c0.024,0.468,0.037,0.815,0.037,1.043c0,0.082-0.002,0.148-0.006,0.198
		c-0.013,0.183-0.066,0.273-0.162,0.273c-0.104,0-0.176-0.167-0.218-0.499c-0.042-0.334-0.079-0.763-0.112-1.287
		s-0.074-0.906-0.124-1.143c-0.05-0.221-0.208-0.477-0.473-0.769c-0.266-0.292-0.473-0.438-0.622-0.438
		c-0.129,0-0.307,0.248-0.532,0.743c-0.227,0.495-0.42,1.057-0.582,1.686c-0.104,0.425-0.195,0.721-0.276,0.89
		s-0.177,0.253-0.288,0.253c-0.046,0.008-0.098-0.229-0.155-0.713c-0.059-0.559-0.15-1.006-0.276-1.346
		c-0.126-0.338-0.31-0.645-0.55-0.917l-0.453-0.483l-0.229,0.348c-0.12,0.194-0.299,0.738-0.537,1.633
		c-0.237,0.894-0.356,1.485-0.356,1.775c0.004,0.152-0.061,0.291-0.192,0.416c-0.079,0.078-0.147,0.117-0.205,0.117
		c-0.033,0-0.064-0.014-0.093-0.043c-0.025-0.017-0.051-0.276-0.078-0.779s-0.059-1.068-0.096-1.695
		C194.456,61.84,194.426,61.415,194.4,61.191z"/>
	<path fill="#A5D4BD" d="M201.409,62.019c0-0.507,0.154-0.979,0.464-1.415c0.31-0.438,0.709-0.752,1.199-0.945
		c0.244-0.096,0.479-0.143,0.705-0.143c0.08,0,0.152,0.004,0.22,0.012c0.292,0.042,0.528,0.159,0.708,0.353
		c0.238,0.26,0.476,0.578,0.712,0.955c0.235,0.377,0.41,0.714,0.523,1.011c0.066,0.197,0.1,0.357,0.1,0.481c0,0.013,0,0.027,0,0.044
		c-0.008,0.133-0.068,0.339-0.18,0.617c-0.162,0.441-0.435,0.857-0.815,1.251c-0.382,0.394-0.735,0.618-1.059,0.677
		c-0.083,0.013-0.168,0.02-0.255,0.02c-0.212-0.005-0.434-0.049-0.666-0.131c-0.324-0.125-0.616-0.32-0.878-0.586
		c-0.187-0.188-0.363-0.518-0.529-0.991S201.409,62.352,201.409,62.019z M201.906,62.074c0,0.539,0.106,1.018,0.32,1.436
		c0.213,0.418,0.496,0.709,0.849,0.873c0.183,0.087,0.366,0.13,0.553,0.13c0.175,0,0.353-0.037,0.535-0.11
		c0.609-0.244,1.043-0.67,1.3-1.279c0.124-0.296,0.185-0.582,0.181-0.857c0-0.293-0.069-0.576-0.206-0.852
		c-0.058-0.119-0.119-0.213-0.183-0.278c-0.064-0.065-0.115-0.087-0.152-0.062c-0.042,0.024-0.088-0.006-0.138-0.09
		s-0.129-0.203-0.239-0.357c-0.109-0.154-0.241-0.283-0.395-0.387c-0.257-0.16-0.469-0.242-0.634-0.246c-0.005,0-0.009,0-0.013,0
		c-0.166,0-0.388,0.069-0.666,0.209c-0.39,0.202-0.67,0.447-0.842,0.738C202.004,61.231,201.914,61.609,201.906,62.074z"/>
	<path fill="#A5D4BD" d="M206.276,63.688c0-0.025,0-0.05,0-0.074c0-0.713,0.031-1.408,0.093-2.086
		c0.059-0.704,0.147-1.056,0.268-1.056s0.188,0.163,0.205,0.49c0,0.079,0.004,0.118,0.012,0.118c0.025,0,0.083-0.129,0.174-0.385
		c0.129-0.356,0.253-0.571,0.373-0.646c0.157-0.074,0.374-0.111,0.651-0.111c0.079,0,0.161,0.004,0.248,0.013
		c0.397,0.024,0.8,0.101,1.208,0.227c0.407,0.126,0.634,0.257,0.68,0.394c0.024,0.059,0.039,0.104,0.043,0.137
		c0,0.07-0.041,0.105-0.124,0.105c-0.104,0-0.285-0.052-0.546-0.156c-0.377-0.14-0.778-0.209-1.204-0.209
		c-0.005,0.004-0.011,0.006-0.019,0.006c-0.439,0-0.714,0.062-0.826,0.188c-0.104,0.137-0.242,0.881-0.416,2.23
		c-0.186,1.467-0.372,2.201-0.559,2.201h-0.006c-0.05,0-0.1-0.044-0.149-0.131C206.312,64.842,206.276,64.424,206.276,63.688z"/>
	<path fill="#A5D4BD" d="M210.529,62.998c-0.029-0.129-0.044-0.27-0.044-0.423c0-0.203,0.025-0.427,0.075-0.671
		c0.096-0.438,0.281-0.836,0.557-1.194s0.608-0.626,0.998-0.804c0.257-0.115,0.475-0.176,0.652-0.18
		c0.029,0,0.059,0.004,0.087,0.012c0.195,0.025,0.402,0.129,0.622,0.311c0.515,0.422,0.771,0.815,0.771,1.184
		c0,0.178-0.062,0.35-0.188,0.516c-0.183,0.249-0.591,0.391-1.224,0.424c-0.096,0.005-0.185,0.007-0.268,0.007
		c-0.502,0-0.89-0.089-1.164-0.267c-0.145-0.098-0.236-0.133-0.273-0.105c-0.037,0.026-0.072,0.146-0.105,0.359
		c-0.029,0.16-0.044,0.312-0.044,0.459c0,0.564,0.226,1.042,0.678,1.43c0.477,0.409,1.082,0.613,1.816,0.613
		c0.145,0,0.294-0.008,0.447-0.025c0.162-0.016,0.292-0.024,0.392-0.024c0.149,0,0.225,0.019,0.225,0.057
		c0,0.063-0.187,0.157-0.56,0.283c-0.252,0.088-0.513,0.132-0.782,0.132c-0.289,0-0.587-0.049-0.894-0.148
		c-0.596-0.191-1.034-0.495-1.316-0.913C210.749,63.647,210.596,63.304,210.529,62.998z M211.344,61.487
		c0.049,0.048,0.406,0.099,1.069,0.151c0.158,0.013,0.301,0.021,0.43,0.025c0.432,0,0.722-0.074,0.871-0.219
		c0.07-0.069,0.105-0.148,0.105-0.237c0-0.167-0.112-0.37-0.336-0.614c-0.216-0.234-0.467-0.352-0.753-0.352
		c-0.104,0-0.209,0.016-0.317,0.049c-0.423,0.113-0.75,0.396-0.982,0.85c-0.07,0.134-0.106,0.229-0.106,0.285
		C211.324,61.455,211.331,61.475,211.344,61.487z"/>
</g>
<g enable-background="new    ">
	<path fill="#EDEDED" d="M214.807,64.467c0.013-0.143,0.083-0.256,0.212-0.339c0.111-0.065,0.222-0.04,0.332,0.077
		c0.109,0.119,0.164,0.267,0.164,0.444c0,0.179-0.051,0.282-0.152,0.313c-0.101,0.031-0.236-0.021-0.406-0.158
		C214.845,64.722,214.795,64.609,214.807,64.467z"/>
	<path fill="#EDEDED" d="M215.769,64.467c0.013-0.143,0.083-0.256,0.212-0.339c0.111-0.065,0.222-0.04,0.332,0.077
		c0.109,0.119,0.164,0.267,0.164,0.444c0,0.179-0.051,0.282-0.152,0.313c-0.101,0.031-0.236-0.021-0.406-0.158
		C215.807,64.722,215.757,64.609,215.769,64.467z"/>
	<path fill="#EDEDED" d="M216.73,64.467c0.013-0.143,0.083-0.256,0.212-0.339c0.111-0.065,0.222-0.04,0.332,0.077
		c0.109,0.119,0.164,0.267,0.164,0.444c0,0.179-0.051,0.282-0.152,0.313c-0.101,0.031-0.236-0.021-0.406-0.158
		C216.769,64.722,216.719,64.609,216.73,64.467z"/>
</g>
</svg>
